<?xml version="1.0" encoding="UTF-8" standalone="no"?><!DOCTYPE svg PUBLIC "-//W3C//DTD SVG 1.1//EN" "http://www.w3.org/Graphics/SVG/1.1/DTD/svg11.dtd"><svg width="100%" height="100%" viewBox="0 0 360 1080" version="1.1" xmlns="http://www.w3.org/2000/svg" xmlns:xlink="http://www.w3.org/1999/xlink" xml:space="preserve" xmlns:serif="http://www.serif.com/" style="fill-rule:evenodd;clip-rule:evenodd;stroke-linejoin:round;stroke-miterlimit:2;"><rect id="Artboard1" x="0" y="0" width="360" height="1080" style="fill:none;"/><path d="M296.485,67.812c0.201,-6.245 -2.14,-12.303 -6.486,-16.791c-4.346,-4.488 -10.327,-7.021 -16.574,-7.021l-180.352,-0c-6.248,-0 -12.228,2.533 -16.574,7.021c-4.347,4.488 -6.687,10.546 -6.487,16.791c3.719,116.033 19.91,621.189 23.521,733.855c0.399,12.448 10.606,22.333 23.061,22.333c34.192,0 99.118,0 133.31,0c12.455,0 22.661,-9.885 23.06,-22.333c3.612,-112.666 19.802,-617.822 23.521,-733.855Z" style="fill:#e6331d;"/><path d="M277.249,988.927c-0,12.743 -10.33,23.073 -23.073,23.073l-141.855,0c-12.742,-0 -23.072,-10.33 -23.072,-23.073l-0,-92.854c-0,-12.743 10.33,-23.073 23.072,-23.073l141.855,0c12.743,0 23.073,10.33 23.073,23.073l-0,92.854Z" style="fill:#e6331d;"/></svg>